<svg xmlns="http://www.w3.org/2000/svg" xmlns:xlink="http://www.w3.org/1999/xlink" width="342" zoomAndPan="magnify" viewBox="0 0 256.5 48" height="64" preserveAspectRatio="xMidYMid meet" version="1.2"><defs><clipPath id="229c2a4183"><path d="M 2.371094 0 L 253.636719 0 L 253.636719 47.019531 L 2.371094 47.019531 Z M 2.371094 0 "/></clipPath><clipPath id="9148e9ecda"><path d="M 12 5 L 36 5 L 36 42 L 12 42 Z M 12 5 "/></clipPath><clipPath id="9feedc5abb"><path d="M 23.207031 44.488281 L 12.96875 6.160156 L 25.742188 2.746094 L 35.984375 41.074219 Z M 23.207031 44.488281 "/></clipPath><clipPath id="0bb5718a77"><path d="M 23.207031 44.488281 L 12.96875 6.160156 L 25.742188 2.746094 L 35.984375 41.074219 Z M 23.207031 44.488281 "/></clipPath><clipPath id="dc0dfd3f0b"><path d="M 31 5 L 55 5 L 55 42 L 31 42 Z M 31 5 "/></clipPath><clipPath id="bc16b4dd31"><path d="M 41.578125 44.488281 L 31.335938 6.160156 L 44.113281 2.746094 L 54.355469 41.074219 Z M 41.578125 44.488281 "/></clipPath><clipPath id="e11235eea3"><path d="M 41.578125 44.488281 L 31.335938 6.160156 L 44.113281 2.746094 L 54.355469 41.074219 Z M 41.578125 44.488281 "/></clipPath><clipPath id="414221e510"><path d="M 49 5 L 73 5 L 73 42 L 49 42 Z M 49 5 "/></clipPath><clipPath id="57763629ca"><path d="M 59.949219 44.488281 L 49.707031 6.160156 L 62.484375 2.746094 L 72.722656 41.074219 Z M 59.949219 44.488281 "/></clipPath><clipPath id="3acfb466b9"><path d="M 59.949219 44.488281 L 49.707031 6.160156 L 62.484375 2.746094 L 72.722656 41.074219 Z M 59.949219 44.488281 "/></clipPath><clipPath id="e650f5632e"><path d="M 2.371094 23 L 20 23 L 20 45 L 2.371094 45 Z M 2.371094 23 "/></clipPath><clipPath id="8ff0c8ee1f"><path d="M 2.375 40.097656 L 10.800781 23.777344 L 19.285156 28.160156 L 10.863281 44.480469 Z M 2.375 40.097656 "/></clipPath><clipPath id="f960af9682"><path d="M 0.371094 4 L 17.300781 4 L 17.300781 19 L 0.371094 19 Z M 0.371094 4 "/></clipPath><clipPath id="9a5fecc854"><path d="M 0.375 17.097656 L 8.800781 0.777344 L 17.285156 5.160156 L 8.863281 21.480469 Z M 0.375 17.097656 "/></clipPath><clipPath id="af2d715076"><path d="M 8.695312 0.980469 L 0.269531 17.304688 L 8.757812 21.683594 L 17.179688 5.363281 Z M 8.695312 0.980469 "/></clipPath><clipPath id="777ec5dcc4"><rect x="0" width="18" y="0" height="22"/></clipPath><clipPath id="36b073f295"><path d="M 66 2 L 84 2 L 84 24 L 66 24 Z M 66 2 "/></clipPath><clipPath id="9955e5d0c3"><path d="M 66.5 18.691406 L 74.925781 2.371094 L 83.410156 6.75 L 74.988281 23.070312 Z M 66.5 18.691406 "/></clipPath><clipPath id="a18016c543"><path d="M 0.320312 3 L 17.484375 3 L 17.484375 18 L 0.320312 18 Z M 0.320312 3 "/></clipPath><clipPath id="5bc020a988"><path d="M 0.5 16.691406 L 8.925781 0.371094 L 17.410156 4.75 L 8.988281 21.070312 Z M 0.5 16.691406 "/></clipPath><clipPath id="8b50c3e963"><path d="M 8.820312 0.574219 L 0.394531 16.894531 L 8.882812 21.277344 L 17.304688 4.953125 Z M 8.820312 0.574219 "/></clipPath><clipPath id="61e6f7c659"><rect x="0" width="18" y="0" height="22"/></clipPath></defs><g id="fbd34d5160"><g clip-rule="nonzero" clip-path="url(#229c2a4183)"><path style=" stroke:none;fill-rule:nonzero;fill:#ffffff;fill-opacity:1;" d="M 2.371094 0 L 253.636719 0 L 253.636719 47.019531 L 2.371094 47.019531 Z M 2.371094 0 "/></g><g clip-rule="nonzero" clip-path="url(#9148e9ecda)"><g clip-rule="nonzero" clip-path="url(#9feedc5abb)"><g clip-rule="nonzero" clip-path="url(#0bb5718a77)"><path style=" stroke:none;fill-rule:nonzero;fill:#f4f6fc;fill-opacity:1;" d="M 12.925781 6.003906 L 16.351562 18.824219 L 19.777344 31.648438 L 19.796875 31.714844 C 21.675781 38.761719 28.914062 42.945312 35.957031 41.0625 L 32.53125 28.238281 L 29.105469 15.417969 L 29.085938 15.347656 C 27.203125 8.304688 19.96875 4.121094 12.925781 6.003906 Z M 12.925781 6.003906 "/></g></g></g><g clip-rule="nonzero" clip-path="url(#dc0dfd3f0b)"><g clip-rule="nonzero" clip-path="url(#bc16b4dd31)"><g clip-rule="nonzero" clip-path="url(#e11235eea3)"><path style=" stroke:none;fill-rule:nonzero;fill:#f4f6fc;fill-opacity:1;" d="M 31.292969 6.003906 L 34.722656 18.824219 L 38.148438 31.648438 L 38.164062 31.714844 C 40.046875 38.761719 47.28125 42.945312 54.328125 41.0625 L 50.902344 28.238281 L 47.472656 15.417969 L 47.457031 15.347656 C 45.574219 8.304688 38.339844 4.121094 31.292969 6.003906 Z M 31.292969 6.003906 "/></g></g></g><g clip-rule="nonzero" clip-path="url(#414221e510)"><g clip-rule="nonzero" clip-path="url(#57763629ca)"><g clip-rule="nonzero" clip-path="url(#3acfb466b9)"><path style=" stroke:none;fill-rule:nonzero;fill:#f4f6fc;fill-opacity:1;" d="M 49.664062 6.003906 L 53.089844 18.824219 L 56.515625 31.648438 L 56.535156 31.714844 C 58.417969 38.761719 65.652344 42.945312 72.695312 41.0625 L 69.269531 28.238281 L 65.84375 15.417969 L 65.828125 15.347656 C 63.945312 8.304688 56.707031 4.121094 49.664062 6.003906 Z M 49.664062 6.003906 "/></g></g></g><g clip-rule="nonzero" clip-path="url(#e650f5632e)"><g clip-rule="nonzero" clip-path="url(#8ff0c8ee1f)"><g transform="matrix(1,0,0,1,2,23)"><g clip-path="url(#777ec5dcc4)"><g clip-rule="nonzero" clip-path="url(#f960af9682)"><g clip-rule="nonzero" clip-path="url(#9a5fecc854)"><g clip-rule="nonzero" clip-path="url(#af2d715076)"><path style=" stroke:none;fill-rule:nonzero;fill:#233dff;fill-opacity:1;" d="M 13.257812 12.988281 L 17.191406 5.367188 C 12.5 2.945312 6.730469 4.785156 4.308594 9.480469 L 0.375 17.101562 C 5.066406 19.523438 10.835938 17.683594 13.257812 12.988281 Z M 13.257812 12.988281 "/></g></g></g></g></g></g></g><g clip-rule="nonzero" clip-path="url(#36b073f295)"><g clip-rule="nonzero" clip-path="url(#9955e5d0c3)"><g transform="matrix(1,0,0,1,66,2)"><g clip-path="url(#61e6f7c659)"><g clip-rule="nonzero" clip-path="url(#a18016c543)"><g clip-rule="nonzero" clip-path="url(#5bc020a988)"><g clip-rule="nonzero" clip-path="url(#8b50c3e963)"><path style=" stroke:none;fill-rule:nonzero;fill:#233dff;fill-opacity:1;" d="M 13.382812 12.582031 L 17.316406 4.960938 C 12.625 2.539062 6.855469 4.378906 4.433594 9.070312 L 0.5 16.691406 C 5.191406 19.113281 10.960938 17.273438 13.382812 12.582031 Z M 13.382812 12.582031 "/></g></g></g></g></g></g></g><g style="fill:#f4f6fc;fill-opacity:1;"><g transform="translate(91.887928, 29.829325)"><path style="stroke:none" d="M 2.265625 0 L 2.265625 -17.59375 L 7.375 -17.59375 C 9.375 -17.59375 11.050781 -17.242188 12.40625 -16.546875 C 13.757812 -15.859375 14.78125 -14.847656 15.46875 -13.515625 C 16.164062 -12.191406 16.515625 -10.578125 16.515625 -8.671875 C 16.515625 -6.835938 16.160156 -5.273438 15.453125 -3.984375 C 14.742188 -2.691406 13.707031 -1.703125 12.34375 -1.015625 C 10.988281 -0.335938 9.320312 0 7.34375 0 Z M 5.421875 -2.90625 L 7.03125 -2.90625 C 8 -2.90625 8.875 -3.003906 9.65625 -3.203125 C 10.4375 -3.410156 11.097656 -3.742188 11.640625 -4.203125 C 12.191406 -4.660156 12.613281 -5.265625 12.90625 -6.015625 C 13.207031 -6.773438 13.359375 -7.703125 13.359375 -8.796875 C 13.359375 -10.191406 13.15625 -11.320312 12.75 -12.1875 C 12.351562 -13.050781 11.707031 -13.679688 10.8125 -14.078125 C 9.925781 -14.484375 8.765625 -14.6875 7.328125 -14.6875 L 5.421875 -14.6875 Z M 5.421875 -2.90625 "/></g></g><g style="fill:#f4f6fc;fill-opacity:1;"><g transform="translate(109.421098, 29.829325)"><path style="stroke:none" d="M 6.984375 0.25 C 5.910156 0.25 4.976562 0.078125 4.1875 -0.265625 C 3.40625 -0.617188 2.75 -1.097656 2.21875 -1.703125 C 1.695312 -2.304688 1.3125 -2.992188 1.0625 -3.765625 C 0.8125 -4.535156 0.6875 -5.335938 0.6875 -6.171875 C 0.6875 -6.984375 0.804688 -7.773438 1.046875 -8.546875 C 1.285156 -9.328125 1.65625 -10.03125 2.15625 -10.65625 C 2.65625 -11.28125 3.285156 -11.773438 4.046875 -12.140625 C 4.816406 -12.515625 5.726562 -12.703125 6.78125 -12.703125 C 7.65625 -12.703125 8.410156 -12.570312 9.046875 -12.3125 C 9.691406 -12.0625 10.238281 -11.71875 10.6875 -11.28125 C 11.144531 -10.851562 11.507812 -10.367188 11.78125 -9.828125 C 12.050781 -9.285156 12.242188 -8.722656 12.359375 -8.140625 C 12.484375 -7.554688 12.546875 -6.984375 12.546875 -6.421875 C 12.546875 -6.160156 12.535156 -5.914062 12.515625 -5.6875 C 12.492188 -5.46875 12.46875 -5.316406 12.4375 -5.234375 L 3.890625 -5.234375 C 3.984375 -4.691406 4.148438 -4.210938 4.390625 -3.796875 C 4.628906 -3.390625 4.960938 -3.070312 5.390625 -2.84375 C 5.816406 -2.613281 6.359375 -2.5 7.015625 -2.5 C 7.578125 -2.5 8.101562 -2.597656 8.59375 -2.796875 C 9.09375 -2.992188 9.5625 -3.335938 10 -3.828125 L 12.09375 -2 C 11.40625 -1.238281 10.640625 -0.671875 9.796875 -0.296875 C 8.960938 0.0664062 8.023438 0.25 6.984375 0.25 Z M 3.890625 -7.421875 L 9.5625 -7.421875 C 9.457031 -8.304688 9.160156 -8.976562 8.671875 -9.4375 C 8.179688 -9.90625 7.546875 -10.140625 6.765625 -10.140625 C 6.160156 -10.140625 5.664062 -10.019531 5.28125 -9.78125 C 4.894531 -9.550781 4.59375 -9.226562 4.375 -8.8125 C 4.15625 -8.40625 3.992188 -7.941406 3.890625 -7.421875 Z M 3.890625 -7.421875 "/></g></g><g style="fill:#f4f6fc;fill-opacity:1;"><g transform="translate(122.698524, 29.829325)"><path style="stroke:none" d="M 4.96875 0 L -0.09375 -12.4375 L 3.21875 -12.4375 L 6.21875 -3.921875 L 9.25 -12.4375 L 12.546875 -12.4375 L 7.46875 0 Z M 4.96875 0 "/></g></g><g style="fill:#f4f6fc;fill-opacity:1;"><g transform="translate(135.129778, 29.829325)"><path style="stroke:none" d="M 5.765625 0 L 5.765625 -14.765625 L 0.25 -14.765625 L 0.25 -17.59375 L 14.4375 -17.59375 L 14.4375 -14.765625 L 8.921875 -14.765625 L 8.921875 0 Z M 5.765625 0 "/></g></g><g style="fill:#f4f6fc;fill-opacity:1;"><g transform="translate(149.813342, 29.829325)"><path style="stroke:none" d="M 1.734375 -14.796875 L 1.734375 -17.59375 L 4.890625 -17.59375 L 4.890625 -14.796875 Z M 1.8125 0 L 1.8125 -12.4375 L 4.8125 -12.4375 L 4.8125 0 Z M 1.8125 0 "/></g></g><g style="fill:#f4f6fc;fill-opacity:1;"><g transform="translate(156.433389, 29.829325)"><path style="stroke:none" d="M 1.8125 0 L 1.8125 -12.4375 L 4.8125 -12.4375 L 4.8125 -11 C 5.144531 -11.40625 5.519531 -11.734375 5.9375 -11.984375 C 6.351562 -12.234375 6.78125 -12.414062 7.21875 -12.53125 C 7.65625 -12.644531 8.078125 -12.703125 8.484375 -12.703125 C 9.304688 -12.703125 10.003906 -12.550781 10.578125 -12.25 C 11.148438 -11.957031 11.613281 -11.5625 11.96875 -11.0625 C 12.320312 -10.5625 12.582031 -10 12.75 -9.375 C 12.914062 -8.75 13 -8.113281 13 -7.46875 L 13 0 L 10 0 L 10 -7.078125 C 10 -7.628906 9.910156 -8.113281 9.734375 -8.53125 C 9.554688 -8.957031 9.289062 -9.289062 8.9375 -9.53125 C 8.582031 -9.78125 8.144531 -9.90625 7.625 -9.90625 C 6.769531 -9.90625 6.085938 -9.660156 5.578125 -9.171875 C 5.066406 -8.679688 4.8125 -7.894531 4.8125 -6.8125 L 4.8125 0 Z M 1.8125 0 "/></g></g><g style="fill:#f4f6fc;fill-opacity:1;"><g transform="translate(170.880522, 29.829325)"><path style="stroke:none" d="M 9.65625 -17.59375 L 12.75 -17.59375 L 12.75 0 L 9.921875 0 L 9.78125 -1.390625 C 9.351562 -0.804688 8.816406 -0.382812 8.171875 -0.125 C 7.523438 0.125 6.859375 0.25 6.171875 0.25 C 5.304688 0.25 4.535156 0.078125 3.859375 -0.265625 C 3.179688 -0.609375 2.613281 -1.082031 2.15625 -1.6875 C 1.707031 -2.289062 1.363281 -2.976562 1.125 -3.75 C 0.894531 -4.53125 0.78125 -5.351562 0.78125 -6.21875 C 0.78125 -7.082031 0.894531 -7.898438 1.125 -8.671875 C 1.363281 -9.453125 1.707031 -10.144531 2.15625 -10.75 C 2.613281 -11.351562 3.171875 -11.828125 3.828125 -12.171875 C 4.492188 -12.523438 5.257812 -12.703125 6.125 -12.703125 C 6.769531 -12.703125 7.410156 -12.582031 8.046875 -12.34375 C 8.691406 -12.113281 9.226562 -11.726562 9.65625 -11.1875 Z M 6.90625 -2.5 C 7.601562 -2.5 8.171875 -2.660156 8.609375 -2.984375 C 9.054688 -3.316406 9.382812 -3.765625 9.59375 -4.328125 C 9.8125 -4.890625 9.921875 -5.519531 9.921875 -6.21875 C 9.921875 -6.914062 9.8125 -7.546875 9.59375 -8.109375 C 9.382812 -8.671875 9.054688 -9.117188 8.609375 -9.453125 C 8.171875 -9.785156 7.601562 -9.953125 6.90625 -9.953125 C 6.207031 -9.953125 5.632812 -9.785156 5.1875 -9.453125 C 4.738281 -9.117188 4.40625 -8.671875 4.1875 -8.109375 C 3.976562 -7.546875 3.875 -6.914062 3.875 -6.21875 C 3.875 -5.53125 3.976562 -4.898438 4.1875 -4.328125 C 4.40625 -3.765625 4.738281 -3.316406 5.1875 -2.984375 C 5.632812 -2.660156 6.207031 -2.5 6.90625 -2.5 Z M 6.90625 -2.5 "/></g></g><g style="fill:#f4f6fc;fill-opacity:1;"><g transform="translate(185.452092, 29.829325)"><path style="stroke:none" d="M 6.984375 0.25 C 5.910156 0.25 4.976562 0.078125 4.1875 -0.265625 C 3.40625 -0.617188 2.75 -1.097656 2.21875 -1.703125 C 1.695312 -2.304688 1.3125 -2.992188 1.0625 -3.765625 C 0.8125 -4.535156 0.6875 -5.335938 0.6875 -6.171875 C 0.6875 -6.984375 0.804688 -7.773438 1.046875 -8.546875 C 1.285156 -9.328125 1.65625 -10.03125 2.15625 -10.65625 C 2.65625 -11.28125 3.285156 -11.773438 4.046875 -12.140625 C 4.816406 -12.515625 5.726562 -12.703125 6.78125 -12.703125 C 7.65625 -12.703125 8.410156 -12.570312 9.046875 -12.3125 C 9.691406 -12.0625 10.238281 -11.71875 10.6875 -11.28125 C 11.144531 -10.851562 11.507812 -10.367188 11.78125 -9.828125 C 12.050781 -9.285156 12.242188 -8.722656 12.359375 -8.140625 C 12.484375 -7.554688 12.546875 -6.984375 12.546875 -6.421875 C 12.546875 -6.160156 12.535156 -5.914062 12.515625 -5.6875 C 12.492188 -5.46875 12.46875 -5.316406 12.4375 -5.234375 L 3.890625 -5.234375 C 3.984375 -4.691406 4.148438 -4.210938 4.390625 -3.796875 C 4.628906 -3.390625 4.960938 -3.070312 5.390625 -2.84375 C 5.816406 -2.613281 6.359375 -2.5 7.015625 -2.5 C 7.578125 -2.5 8.101562 -2.597656 8.59375 -2.796875 C 9.09375 -2.992188 9.5625 -3.335938 10 -3.828125 L 12.09375 -2 C 11.40625 -1.238281 10.640625 -0.671875 9.796875 -0.296875 C 8.960938 0.0664062 8.023438 0.25 6.984375 0.25 Z M 3.890625 -7.421875 L 9.5625 -7.421875 C 9.457031 -8.304688 9.160156 -8.976562 8.671875 -9.4375 C 8.179688 -9.90625 7.546875 -10.140625 6.765625 -10.140625 C 6.160156 -10.140625 5.664062 -10.019531 5.28125 -9.78125 C 4.894531 -9.550781 4.59375 -9.226562 4.375 -8.8125 C 4.15625 -8.40625 3.992188 -7.941406 3.890625 -7.421875 Z M 3.890625 -7.421875 "/></g></g><g style="fill:#f4f6fc;fill-opacity:1;"><g transform="translate(198.729518, 29.829325)"><path style="stroke:none" d="M 1.8125 0 L 1.8125 -12.4375 L 4.765625 -12.4375 L 4.765625 -10.34375 C 4.953125 -10.851562 5.21875 -11.28125 5.5625 -11.625 C 5.90625 -11.976562 6.296875 -12.242188 6.734375 -12.421875 C 7.179688 -12.609375 7.640625 -12.703125 8.109375 -12.703125 C 8.523438 -12.703125 8.929688 -12.628906 9.328125 -12.484375 C 9.734375 -12.335938 10.085938 -12.109375 10.390625 -11.796875 L 9 -9.3125 C 8.582031 -9.59375 8.128906 -9.734375 7.640625 -9.734375 C 7.285156 -9.734375 6.9375 -9.644531 6.59375 -9.46875 C 6.25 -9.300781 5.9375 -9.035156 5.65625 -8.671875 C 5.375 -8.316406 5.148438 -7.851562 4.984375 -7.28125 C 4.828125 -6.71875 4.75 -6.039062 4.75 -5.25 L 4.75 0 Z M 1.8125 0 "/></g></g></g></svg>